#!OML:ASF X:\für Bonn\!DataBase\2005_08_10_Bjorn_Final\c3d\bjorn.ASF
:FULLY-SPECIFIED
:DEGREES
47
root 1.41918 14.3044 3.90323 -180.879 -0.909847 -179.857
lowerback 21.4588 0.837883 7.55992
upperback 9.99757 0.436942 -0.442834
thorax -0.864606 -0.385834 -4.85025
lowerneck -21.7249 -2.09412 -0.134885
upperneck 0.241852 -3.46575 -0.21621
head 3.43153 -2.04114 -0.371403
rclavicle 2.64384e-014 -3.97569e-016
rhumerus 78.8142 1.43653 -58.6781
rradius 16.0153
rwrist 27.6453
rhand -15.465 13.8157
rfingers 7.12502
rthumb 10.7162 -15.891
lclavicle 2.64384e-014 -3.97569e-016
lhumerus 84.8671 -9.83118 47.6418
lradius 15.4494
lwrist -20.0233
lhand -17.0378 -4.35722
lfingers 7.12502
lthumb 9.19889 25.4221
rfemur -53.4111 -15.5486 16.3023
rtibia 102.213
rfoot -28.0832 25.2723
rtoes -14.616
lfemur -54.4787 5.53441 -18.6886
ltibia 104.975
lfoot -28.1948 -1.09551
ltoes -31.0095
48
root 1.40431 14.0686 3.93629 -181.019 -0.861462 -179.59
lowerback 22.0785 0.783647 7.87453
upperback 10.0556 0.415958 -0.370299
thorax -1.09555 -0.420682 -4.95077
lowerneck -21.564 -1.97083 0.217584
upperneck -0.0218058 -3.3947 -0.452457
head 3.31741 -2.02609 -0.48949
rclavicle 2.74323e-014 -2.78299e-015
rhumerus 78.5848 1.43473 -58.7669
rradius 16.4532
rwrist 27.3123
rhand -16.0212 14.3309
rfingers 7.12502
rthumb 10.1797 -15.4028
lclavicle 2.74323e-014 -2.78299e-015
lhumerus 85.0316 -9.75807 47.0083
lradius 15.6753
lwrist -19.2661
lhand -17.0184 -4.54539
lfingers 7.12502
lthumb 9.21761 25.2331
rfemur -54.7778 -15.9357 16.2894
rtibia 104.415
rfoot -28.3341 25.9908
rtoes -15.9154
lfemur -55.8161 6.08609 -18.1808
ltibia 107.162
lfoot -28.482 -2.03793
ltoes -31.832
49
root 1.38952 13.8287 3.96827 -181.15 -0.80891 -179.289
lowerback 22.6647 0.730817 8.20459
upperback 10.1206 0.399895 -0.284514
thorax -1.29862 -0.452855 -5.04607
lowerneck -21.4976 -1.83871 0.599081
upperneck -0.226881 -3.31711 -0.731078
head 3.2345 -2.01023 -0.626842
rclavicle 8.34896e-015 -1.90833e-014
rhumerus 78.397 1.40661 -58.7145
rradius 16.8915
rwrist 26.9365
rhand -16.5416 14.7877
rfingers 7.12502
rthumb 9.67768 -14.97
lclavicle 8.34896e-015 -1.90833e-014
lhumerus 85.1552 -9.70128 46.5924
lradius 15.9168
lwrist -18.7278
lhand -16.9764 -4.68732
lfingers 7.12502
lthumb 9.25811 25.0894
rfemur -56.1701 -16.3746 16.2939
rtibia 106.612
rfoot -28.6647 26.7027
rtoes -17.4942
lfemur -57.1891 6.7386 -17.6113
ltibia 109.363
lfoot -28.7988 -3.09571
ltoes -32.7335
50
root 1.37375 13.5827 3.99921 -181.306 -0.728177 -179.023
lowerback 23.2697 0.687892 8.4787
upperback 10.1762 0.391718 -0.198198
thorax -1.52085 -0.484569 -5.11016
lowerneck -21.4127 -1.7019 0.960129
upperneck -0.453371 -3.23079 -0.988761
head 3.14373 -1.98961 -0.753343
rclavicle 1.09332e-014 -4.77083e-015
rhumerus 78.2183 1.41896 -58.4174
rradius 17.3167
rwrist 26.3599
rhand -17.0336 15.1787
rfingers 7.12502
rthumb 9.20292 -14.6005
lclavicle 1.09332e-014 -4.77083e-015
lhumerus 85.2214 -9.65122 46.3358
lradius 16.1313
lwrist -18.4329
lhand -16.8457 -4.71162
lfingers 7.12502
lthumb 9.38424 25.0595
rfemur -57.5619 -16.8812 16.2229
rtibia 108.819
rfoot -29.0176 27.5199
rtoes -18.9897
lfemur -58.532 7.51447 -17.0498
ltibia 111.561
lfoot -29.0842 -4.50673
ltoes -32.9606
51
root 1.35821 13.3325 4.02721 -181.459 -0.638397 -178.826
lowerback 23.8121 0.662558 8.67804
upperback 10.2431 0.387782 -0.142634
thorax -1.7003 -0.513273 -5.1654
lowerneck -21.0107 -1.55995 1.38741
upperneck -1.20858 -3.1507 -1.20526
head 3.26161 -1.96621 -0.96936
rclavicle 2.44505e-014 -6.36111e-015
rhumerus 78.0477 1.42158 -58.1123
rradius 17.7212
rwrist 25.7587
rhand -17.444 15.4748
rfingers 7.12502
rthumb 8.8069 -14.3214
lclavicle 2.44505e-014 -6.36111e-015
lhumerus 85.3298 -9.59398 46.05
lradius 16.2808
lwrist -18.1626
lhand -16.7521 -4.71932
lfingers 7.12502
lthumb 9.4745 25.0477
rfemur -58.9789 -17.5122 16.0537
rtibia 111.033
rfoot -29.4123 28.3749
rtoes -20.5347
lfemur -59.8853 8.42165 -16.5684
ltibia 113.756
lfoot -29.3613 -6.00972
ltoes -32.9745
52
root 1.34362 13.0775 4.05389 -181.618 -0.548522 -178.664
lowerback 24.3654 0.647531 8.86015
upperback 10.3123 0.39471 -0.113557
thorax -1.87947 -0.536944 -5.24234
lowerneck -21.0916 -1.42916 1.79742
upperneck -1.33389 -3.08523 -1.46659
head 3.22428 -1.95591 -1.12564
rclavicle -1.98785e-015 1.86858e-014
rhumerus 77.865 1.376 -58.0491
rradius 18.0343
rwrist 25.3805
rhand -17.829 15.6951
rfingers 7.12502
rthumb 8.43541 -14.1165
lclavicle -1.98785e-015 1.86858e-014
lhumerus 85.5215 -9.54265 45.6888
lradius 16.3878
lwrist -17.8726
lhand -16.6009 -4.69728
lfingers 7.12502
lthumb 9.62044 25.0631
rfemur -60.4168 -18.2659 15.8351
rtibia 113.249
rfoot -29.6361 29.3909
rtoes -21.5138
lfemur -61.2584 9.51433 -16.1243
ltibia 115.963
lfoot -29.5491 -7.75751
ltoes -32.2425
